<mxfile host="app.diagrams.net" modified="2024-05-27T17:13:49.317Z" agent="Mozilla/5.0 (Windows NT 10.0; Win64; x64) AppleWebKit/537.36 (KHTML, like Gecko) Chrome/125.0.0.0 Safari/537.36" etag="BD2fK6S933aJa7pLZpRU" version="24.4.9" type="device">
  <diagram name="Página-1" id="-qFB8aAsUAFHRtEWmJsG">
    <mxGraphModel dx="808" dy="435" grid="1" gridSize="10" guides="1" tooltips="1" connect="1" arrows="1" fold="1" page="1" pageScale="1" pageWidth="827" pageHeight="1169" math="0" shadow="0">
      <root>
        <mxCell id="0" />
        <mxCell id="1" parent="0" />
        <mxCell id="krula1kkqeeLvZCHAs3P-1" value="Cliente" style="shape=umlActor;verticalLabelPosition=bottom;verticalAlign=top;html=1;outlineConnect=0;" vertex="1" parent="1">
          <mxGeometry x="40" y="40" width="30" height="60" as="geometry" />
        </mxCell>
        <mxCell id="krula1kkqeeLvZCHAs3P-3" value="Selecionar locais de origem e destino" style="ellipse;whiteSpace=wrap;html=1;" vertex="1" parent="1">
          <mxGeometry x="150" y="30" width="120" height="80" as="geometry" />
        </mxCell>
        <mxCell id="krula1kkqeeLvZCHAs3P-11" style="edgeStyle=orthogonalEdgeStyle;rounded=0;orthogonalLoop=1;jettySize=auto;html=1;entryX=0.011;entryY=0.584;entryDx=0;entryDy=0;dashed=1;entryPerimeter=0;exitX=1.022;exitY=0.578;exitDx=0;exitDy=0;exitPerimeter=0;" edge="1" parent="1" source="krula1kkqeeLvZCHAs3P-3" target="krula1kkqeeLvZCHAs3P-4">
          <mxGeometry relative="1" as="geometry">
            <mxPoint x="290" y="90" as="sourcePoint" />
          </mxGeometry>
        </mxCell>
        <mxCell id="krula1kkqeeLvZCHAs3P-4" value="Selecionar tipo de passagem (ida ou ida e volta)" style="ellipse;whiteSpace=wrap;html=1;" vertex="1" parent="1">
          <mxGeometry x="340" y="30" width="120" height="80" as="geometry" />
        </mxCell>
        <mxCell id="krula1kkqeeLvZCHAs3P-13" style="edgeStyle=orthogonalEdgeStyle;rounded=0;orthogonalLoop=1;jettySize=auto;html=1;entryX=0.5;entryY=0;entryDx=0;entryDy=0;dashed=1;" edge="1" parent="1" target="krula1kkqeeLvZCHAs3P-15">
          <mxGeometry relative="1" as="geometry">
            <mxPoint x="460" y="70" as="sourcePoint" />
            <mxPoint x="459.999999999999" y="100" as="targetPoint" />
          </mxGeometry>
        </mxCell>
        <mxCell id="krula1kkqeeLvZCHAs3P-19" style="edgeStyle=orthogonalEdgeStyle;rounded=0;orthogonalLoop=1;jettySize=auto;html=1;entryX=0.5;entryY=0;entryDx=0;entryDy=0;dashed=1;" edge="1" parent="1" source="krula1kkqeeLvZCHAs3P-5" target="krula1kkqeeLvZCHAs3P-15">
          <mxGeometry relative="1" as="geometry" />
        </mxCell>
        <mxCell id="krula1kkqeeLvZCHAs3P-5" value="Informar data de partida/retorno" style="ellipse;whiteSpace=wrap;html=1;" vertex="1" parent="1">
          <mxGeometry x="150" y="160" width="120" height="80" as="geometry" />
        </mxCell>
        <mxCell id="krula1kkqeeLvZCHAs3P-6" value="" style="endArrow=none;html=1;rounded=0;entryX=0;entryY=0.5;entryDx=0;entryDy=0;" edge="1" parent="1" source="krula1kkqeeLvZCHAs3P-1" target="krula1kkqeeLvZCHAs3P-3">
          <mxGeometry width="50" height="50" relative="1" as="geometry">
            <mxPoint x="100" y="120" as="sourcePoint" />
            <mxPoint x="150" y="70" as="targetPoint" />
          </mxGeometry>
        </mxCell>
        <mxCell id="krula1kkqeeLvZCHAs3P-12" value="&amp;lt;&amp;lt;include&amp;gt;&amp;gt;" style="text;html=1;align=center;verticalAlign=middle;resizable=0;points=[];autosize=1;strokeColor=none;fillColor=none;" vertex="1" parent="1">
          <mxGeometry x="260" y="30" width="90" height="30" as="geometry" />
        </mxCell>
        <mxCell id="krula1kkqeeLvZCHAs3P-14" value="&amp;lt;&amp;lt;include&amp;gt;&amp;gt;" style="text;html=1;align=center;verticalAlign=middle;resizable=0;points=[];autosize=1;strokeColor=none;fillColor=none;" vertex="1" parent="1">
          <mxGeometry x="450" y="30" width="90" height="30" as="geometry" />
        </mxCell>
        <mxCell id="krula1kkqeeLvZCHAs3P-21" style="edgeStyle=orthogonalEdgeStyle;rounded=0;orthogonalLoop=1;jettySize=auto;html=1;entryX=0.5;entryY=0;entryDx=0;entryDy=0;dashed=1;" edge="1" parent="1" source="krula1kkqeeLvZCHAs3P-15" target="krula1kkqeeLvZCHAs3P-17">
          <mxGeometry relative="1" as="geometry" />
        </mxCell>
        <mxCell id="krula1kkqeeLvZCHAs3P-15" value="Consultar horarios e classes disponíveis" style="ellipse;whiteSpace=wrap;html=1;" vertex="1" parent="1">
          <mxGeometry x="530" y="170" width="120" height="80" as="geometry" />
        </mxCell>
        <mxCell id="krula1kkqeeLvZCHAs3P-23" style="edgeStyle=orthogonalEdgeStyle;rounded=0;orthogonalLoop=1;jettySize=auto;html=1;dashed=1;exitX=1;exitY=0.5;exitDx=0;exitDy=0;entryX=0;entryY=0.5;entryDx=0;entryDy=0;" edge="1" parent="1" source="krula1kkqeeLvZCHAs3P-18" target="krula1kkqeeLvZCHAs3P-17">
          <mxGeometry relative="1" as="geometry">
            <mxPoint x="410" y="400" as="targetPoint" />
          </mxGeometry>
        </mxCell>
        <mxCell id="krula1kkqeeLvZCHAs3P-17" value="selecionar poltronas e número de parcelas" style="ellipse;whiteSpace=wrap;html=1;" vertex="1" parent="1">
          <mxGeometry x="530" y="340" width="120" height="80" as="geometry" />
        </mxCell>
        <mxCell id="krula1kkqeeLvZCHAs3P-18" value="Cancelar compra" style="ellipse;whiteSpace=wrap;html=1;" vertex="1" parent="1">
          <mxGeometry x="230" y="340" width="120" height="80" as="geometry" />
        </mxCell>
        <mxCell id="krula1kkqeeLvZCHAs3P-20" value="&amp;lt;&amp;lt;include&amp;gt;&amp;gt;" style="text;html=1;align=center;verticalAlign=middle;resizable=0;points=[];autosize=1;strokeColor=none;fillColor=none;" vertex="1" parent="1">
          <mxGeometry x="310" y="170" width="90" height="30" as="geometry" />
        </mxCell>
        <mxCell id="krula1kkqeeLvZCHAs3P-22" value="&amp;lt;&amp;lt;include&amp;gt;&amp;gt;" style="text;html=1;align=center;verticalAlign=middle;resizable=0;points=[];autosize=1;strokeColor=none;fillColor=none;" vertex="1" parent="1">
          <mxGeometry x="590" y="270" width="90" height="30" as="geometry" />
        </mxCell>
        <mxCell id="krula1kkqeeLvZCHAs3P-24" value="&amp;lt;&amp;lt;Extend&amp;gt;&amp;gt;" style="text;html=1;align=center;verticalAlign=middle;resizable=0;points=[];autosize=1;strokeColor=none;fillColor=none;" vertex="1" parent="1">
          <mxGeometry x="380" y="340" width="90" height="30" as="geometry" />
        </mxCell>
        <mxCell id="krula1kkqeeLvZCHAs3P-26" value="" style="endArrow=none;html=1;rounded=0;" edge="1" parent="1" source="krula1kkqeeLvZCHAs3P-1" target="krula1kkqeeLvZCHAs3P-5">
          <mxGeometry width="50" height="50" relative="1" as="geometry">
            <mxPoint x="350" y="240" as="sourcePoint" />
            <mxPoint x="400" y="190" as="targetPoint" />
          </mxGeometry>
        </mxCell>
      </root>
    </mxGraphModel>
  </diagram>
</mxfile>
